<svg xmlns="http://www.w3.org/2000/svg" xmlns:xlink="http://www.w3.org/1999/xlink" width="500" zoomAndPan="magnify" viewBox="0 0 375 374.999991" height="500" preserveAspectRatio="xMidYMid meet" version="1.0"><defs><g/><clipPath id="f39d66db01"><path d="M 0 190.722656 L 375 190.722656 L 375 206.492188 L 0 206.492188 Z M 0 190.722656 " clip-rule="nonzero"/></clipPath></defs><rect x="-37.5" width="450" fill="#ffffff" y="-37.499999" height="449.999989" fill-opacity="1"/><rect x="-37.5" width="450" fill="#ffffff" y="-37.499999" height="449.999989" fill-opacity="1"/><rect x="-37.5" width="450" fill="#ffffff" y="-37.499999" height="449.999989" fill-opacity="1"/><g fill="#000000" fill-opacity="1"><g transform="translate(34.393966, 226.386298)"><g><path d="M 37.703125 1 C 30.546875 1 24.59375 -0.535156 19.84375 -3.609375 C 15.101562 -6.679688 11.546875 -10.957031 9.171875 -16.4375 C 6.796875 -21.925781 5.609375 -28.34375 5.609375 -35.6875 C 5.609375 -42.976562 6.8125 -49.394531 9.21875 -54.9375 C 11.625 -60.488281 15.265625 -64.816406 20.140625 -67.921875 C 25.023438 -71.035156 31.210938 -72.59375 38.703125 -72.59375 C 45.390625 -72.59375 50.519531 -71.457031 54.09375 -69.1875 C 57.664062 -66.914062 59.453125 -64.175781 59.453125 -60.96875 C 59.453125 -58.6875 58.566406 -56.910156 56.796875 -55.640625 C 55.023438 -54.378906 52.671875 -53.75 49.734375 -53.75 C 49.734375 -60.09375 48.726562 -64.632812 46.71875 -67.375 C 44.71875 -70.113281 41.507812 -71.484375 37.09375 -71.484375 C 30.414062 -71.484375 25.617188 -68.539062 22.703125 -62.65625 C 19.796875 -56.78125 18.34375 -47.894531 18.34375 -36 C 18.34375 -23.894531 19.960938 -14.867188 23.203125 -8.921875 C 26.453125 -2.972656 31.753906 0 39.109375 0 C 43.710938 0 47.453125 -1.21875 50.328125 -3.65625 C 53.203125 -6.09375 55.3125 -9.921875 56.65625 -15.140625 C 58.320312 -14.472656 59.15625 -13.171875 59.15625 -11.234375 C 59.15625 -9.492188 58.398438 -7.671875 56.890625 -5.765625 C 55.390625 -3.859375 53.050781 -2.253906 49.875 -0.953125 C 46.707031 0.347656 42.648438 1 37.703125 1 Z M 37.703125 1 "/></g></g></g><g fill="#000000" fill-opacity="1"><g transform="translate(97.461696, 226.386298)"><g><path d="M 3.515625 0 L 3.515625 -1 L 5.609375 -1 C 7.953125 -1 9.773438 -1.535156 11.078125 -2.609375 C 12.378906 -3.679688 13.03125 -5.484375 13.03125 -8.015625 L 13.03125 -63.96875 C 13.03125 -66.3125 12.378906 -68 11.078125 -69.03125 C 9.773438 -70.070312 7.953125 -70.59375 5.609375 -70.59375 L 3.515625 -70.59375 L 3.515625 -71.59375 L 32.390625 -71.59375 C 41.078125 -71.59375 47.492188 -69.71875 51.640625 -65.96875 C 55.785156 -62.226562 57.859375 -57.082031 57.859375 -50.53125 C 57.859375 -46.519531 56.972656 -42.789062 55.203125 -39.34375 C 53.429688 -35.90625 50.503906 -33.117188 46.421875 -30.984375 C 42.347656 -28.847656 36.9375 -27.78125 30.1875 -27.78125 L 24.671875 -27.78125 L 24.671875 -7.921875 C 24.671875 -5.453125 25.320312 -3.679688 26.625 -2.609375 C 27.925781 -1.535156 29.742188 -1 32.078125 -1 L 34.796875 -1 L 34.796875 0 Z M 24.671875 -28.78125 L 29.171875 -28.78125 C 34.992188 -28.78125 39.140625 -30.398438 41.609375 -33.640625 C 44.078125 -36.878906 45.3125 -42.34375 45.3125 -50.03125 C 45.3125 -57.382812 44.207031 -62.648438 42 -65.828125 C 39.800781 -69.003906 36.03125 -70.59375 30.6875 -70.59375 L 24.671875 -70.59375 Z M 24.671875 -28.78125 "/></g></g></g><g fill="#000000" fill-opacity="1"><g transform="translate(158.92515, 226.386298)"><g><path d="M 3.515625 0 L 3.515625 -1 L 5.609375 -1 C 7.953125 -1 9.773438 -1.535156 11.078125 -2.609375 C 12.378906 -3.679688 13.03125 -5.484375 13.03125 -8.015625 L 13.03125 -63.875 C 13.03125 -66.28125 12.378906 -68 11.078125 -69.03125 C 9.773438 -70.070312 7.953125 -70.59375 5.609375 -70.59375 L 3.515625 -70.59375 L 3.515625 -71.59375 L 34.1875 -71.59375 L 34.1875 -70.59375 L 32.078125 -70.59375 C 29.671875 -70.59375 27.847656 -70.054688 26.609375 -68.984375 C 25.378906 -67.910156 24.765625 -66.101562 24.765625 -63.5625 L 24.765625 -8.015625 C 24.765625 -5.484375 25.378906 -3.679688 26.609375 -2.609375 C 27.847656 -1.535156 29.671875 -1 32.078125 -1 L 34.1875 -1 L 34.1875 0 Z M 3.515625 0 "/></g></g></g><g fill="#000000" fill-opacity="1"><g transform="translate(196.625416, 226.386298)"><g><path d="M 0.09375 0 L 0.09375 -1 L 3.3125 -1 C 5.382812 -1 7.019531 -1.566406 8.21875 -2.703125 C 9.425781 -3.835938 10.53125 -5.84375 11.53125 -8.71875 L 33.796875 -71.59375 L 40.203125 -71.59375 L 64.578125 -6.8125 C 65.441406 -4.613281 66.34375 -3.09375 67.28125 -2.25 C 68.21875 -1.414062 69.453125 -1 70.984375 -1 L 71.984375 -1 L 71.984375 0 L 42.90625 0 L 42.90625 -1 L 46.125 -1 C 48.394531 -1 50.03125 -1.28125 51.03125 -1.84375 C 52.039062 -2.414062 52.546875 -3.4375 52.546875 -4.90625 C 52.546875 -5.445312 52.476562 -6.097656 52.34375 -6.859375 C 52.207031 -7.628906 51.972656 -8.484375 51.640625 -9.421875 L 45.625 -26.0625 L 18.84375 -26.0625 L 13.234375 -10.328125 C 12.898438 -9.328125 12.628906 -8.441406 12.421875 -7.671875 C 12.222656 -6.898438 12.125 -6.179688 12.125 -5.515625 C 12.125 -3.847656 12.8125 -2.675781 14.1875 -2 C 15.5625 -1.332031 17.785156 -1 20.859375 -1 L 24.46875 -1 L 24.46875 0 Z M 19.15625 -27.078125 L 45.21875 -27.078125 L 38.203125 -46.328125 C 37.066406 -49.460938 35.960938 -52.617188 34.890625 -55.796875 C 33.816406 -58.972656 32.945312 -61.898438 32.28125 -64.578125 C 31.34375 -61.765625 30.421875 -59.085938 29.515625 -56.546875 C 28.617188 -54.003906 27.601562 -51.097656 26.46875 -47.828125 Z M 19.15625 -27.078125 "/></g></g></g><g fill="#000000" fill-opacity="1"><g transform="translate(268.61688, 226.386298)"><g><path d="M 0.09375 0 L 0.09375 -1 L 3.3125 -1 C 5.382812 -1 7.019531 -1.566406 8.21875 -2.703125 C 9.425781 -3.835938 10.53125 -5.84375 11.53125 -8.71875 L 33.796875 -71.59375 L 40.203125 -71.59375 L 64.578125 -6.8125 C 65.441406 -4.613281 66.34375 -3.09375 67.28125 -2.25 C 68.21875 -1.414062 69.453125 -1 70.984375 -1 L 71.984375 -1 L 71.984375 0 L 42.90625 0 L 42.90625 -1 L 46.125 -1 C 48.394531 -1 50.03125 -1.28125 51.03125 -1.84375 C 52.039062 -2.414062 52.546875 -3.4375 52.546875 -4.90625 C 52.546875 -5.445312 52.476562 -6.097656 52.34375 -6.859375 C 52.207031 -7.628906 51.972656 -8.484375 51.640625 -9.421875 L 45.625 -26.0625 L 18.84375 -26.0625 L 13.234375 -10.328125 C 12.898438 -9.328125 12.628906 -8.441406 12.421875 -7.671875 C 12.222656 -6.898438 12.125 -6.179688 12.125 -5.515625 C 12.125 -3.847656 12.8125 -2.675781 14.1875 -2 C 15.5625 -1.332031 17.785156 -1 20.859375 -1 L 24.46875 -1 L 24.46875 0 Z M 19.15625 -27.078125 L 45.21875 -27.078125 L 38.203125 -46.328125 C 37.066406 -49.460938 35.960938 -52.617188 34.890625 -55.796875 C 33.816406 -58.972656 32.945312 -61.898438 32.28125 -64.578125 C 31.34375 -61.765625 30.421875 -59.085938 29.515625 -56.546875 C 28.617188 -54.003906 27.601562 -51.097656 26.46875 -47.828125 Z M 19.15625 -27.078125 "/></g></g></g><g id="sub-text" clip-path="url(#f39d66db01)"><path fill="#ffffff" d="M 0 190.722656 L 375.199219 190.722656 L 375.199219 206.195312 L 0 206.195312 Z M 0 190.722656 " fill-opacity="1" fill-rule="nonzero"/></g><g fill="#000000" fill-opacity="1"><g transform="translate(29.314302, 200.975565)"><g><path d="M 4.96875 -1.476562 L 4.417969 -1.476562 C 4.25 -1.164062 4.015625 -0.910156 3.714844 -0.726562 C 3.417969 -0.53125 3.082031 -0.441406 2.730469 -0.441406 C 2.195312 -0.441406 1.742188 -0.632812 1.363281 -1.03125 C 0.996094 -1.40625 0.816406 -1.867188 0.816406 -2.410156 C 0.816406 -2.949219 0.996094 -3.410156 1.363281 -3.792969 C 1.535156 -3.972656 1.742188 -4.113281 1.976562 -4.222656 C 2.203125 -4.328125 2.429688 -4.382812 2.65625 -4.382812 C 2.878906 -4.382812 3.070312 -4.355469 3.238281 -4.304688 C 3.757812 -4.148438 4.148438 -3.835938 4.414062 -3.359375 L 4.960938 -3.359375 C 4.773438 -3.816406 4.484375 -4.183594 4.078125 -4.46875 C 3.667969 -4.753906 3.21875 -4.894531 2.730469 -4.894531 C 2.054688 -4.894531 1.484375 -4.648438 1.015625 -4.15625 C 0.796875 -3.929688 0.625 -3.660156 0.503906 -3.359375 C 0.375 -3.0625 0.320312 -2.742188 0.320312 -2.410156 C 0.320312 -1.726562 0.546875 -1.152344 1.015625 -0.667969 C 1.484375 -0.171875 2.054688 0.0703125 2.730469 0.0703125 C 3.21875 0.0703125 3.667969 -0.0703125 4.085938 -0.355469 C 4.492188 -0.640625 4.78125 -1.007812 4.96875 -1.476562 Z M 4.96875 -1.476562 "/></g></g></g><g fill="#000000" fill-opacity="1"><g transform="translate(36.036389, 200.975565)"><g><path d="M 3.402344 0 L 3.402344 -0.460938 L 1.03125 -0.460938 L 1.03125 -2.179688 L 3.332031 -2.179688 L 3.332031 -2.652344 L 1.03125 -2.652344 L 1.03125 -4.371094 L 3.402344 -4.371094 L 3.402344 -4.832031 L 0.53125 -4.832031 L 0.53125 0 Z M 3.402344 0 "/></g></g></g><g fill="#000000" fill-opacity="1"><g transform="translate(41.514955, 200.975565)"><g><path d="M 1.03125 -3.558594 L 3.746094 0.296875 L 3.746094 -4.832031 L 3.246094 -4.832031 L 3.246094 -1.277344 L 0.53125 -5.136719 L 0.53125 0 L 1.03125 0 Z M 1.03125 -3.558594 "/></g></g></g><g fill="#000000" fill-opacity="1"><g transform="translate(47.334599, 200.975565)"><g><path d="M 0.140625 -4.382812 L 1.316406 -4.382812 L 1.316406 -0.015625 L 1.8125 -0.015625 L 1.8125 -4.382812 L 2.984375 -4.382812 L 2.984375 -4.847656 L 0.140625 -4.847656 Z M 0.140625 -4.382812 "/></g></g></g><g fill="#000000" fill-opacity="1"><g transform="translate(52.003111, 200.975565)"><g><path d="M 1.03125 -2.386719 L 1.03125 -4.355469 L 2.152344 -4.355469 C 2.445312 -4.355469 2.679688 -4.261719 2.855469 -4.078125 C 3.027344 -3.894531 3.121094 -3.667969 3.121094 -3.382812 C 3.121094 -3.097656 3.027344 -2.863281 2.84375 -2.671875 C 2.65625 -2.480469 2.429688 -2.386719 2.152344 -2.386719 Z M 3.617188 -3.375 C 3.617188 -3.789062 3.460938 -4.144531 3.160156 -4.417969 C 2.871094 -4.691406 2.507812 -4.832031 2.082031 -4.832031 L 0.53125 -4.832031 L 0.53125 0 L 1.03125 0 L 1.03125 -1.910156 L 1.605469 -1.910156 L 3.027344 0 L 3.695312 0 L 2.203125 -1.910156 C 2.578125 -1.933594 2.898438 -2.066406 3.160156 -2.316406 C 3.460938 -2.59375 3.617188 -2.949219 3.617188 -3.375 Z M 3.617188 -3.375 "/></g></g></g><g fill="#000000" fill-opacity="1"><g transform="translate(57.410621, 200.975565)"><g><path d="M 4.789062 -2.429688 C 4.789062 -1.875 4.589844 -1.40625 4.207031 -1.023438 C 3.816406 -0.632812 3.347656 -0.441406 2.800781 -0.441406 C 2.253906 -0.441406 1.785156 -0.632812 1.398438 -1.023438 C 1.007812 -1.40625 0.816406 -1.875 0.816406 -2.429688 C 0.816406 -2.96875 1.007812 -3.4375 1.398438 -3.828125 C 1.785156 -4.214844 2.253906 -4.414062 2.800781 -4.414062 C 3.347656 -4.414062 3.816406 -4.214844 4.207031 -3.828125 C 4.589844 -3.4375 4.789062 -2.96875 4.789062 -2.429688 Z M 5.285156 -2.429688 C 5.285156 -2.769531 5.214844 -3.089844 5.085938 -3.398438 C 4.960938 -3.695312 4.78125 -3.957031 4.554688 -4.183594 C 4.328125 -4.40625 4.066406 -4.582031 3.765625 -4.710938 C 3.460938 -4.839844 3.140625 -4.910156 2.800781 -4.910156 C 2.457031 -4.910156 2.132812 -4.839844 1.832031 -4.710938 C 1.535156 -4.582031 1.273438 -4.40625 1.042969 -4.183594 C 0.816406 -3.957031 0.640625 -3.695312 0.511719 -3.398438 C 0.382812 -3.089844 0.320312 -2.769531 0.320312 -2.429688 C 0.320312 -2.089844 0.382812 -1.761719 0.511719 -1.464844 C 0.640625 -1.160156 0.816406 -0.894531 1.042969 -0.667969 C 1.273438 -0.441406 1.535156 -0.261719 1.832031 -0.136719 C 2.132812 -0.0078125 2.457031 0.0585938 2.800781 0.0585938 C 3.140625 0.0585938 3.460938 -0.0078125 3.765625 -0.136719 C 4.066406 -0.261719 4.328125 -0.441406 4.554688 -0.667969 C 4.78125 -0.894531 4.960938 -1.160156 5.085938 -1.464844 C 5.214844 -1.761719 5.285156 -2.089844 5.285156 -2.429688 Z M 5.285156 -2.429688 "/></g></g></g><g fill="#000000" fill-opacity="1"><g transform="translate(64.559054, 200.975565)"><g/></g></g><g fill="#000000" fill-opacity="1"><g transform="translate(68.01957, 200.975565)"><g><path d="M 4.285156 -2.414062 C 4.285156 -2.765625 4.214844 -3.082031 4.085938 -3.382812 C 3.957031 -3.679688 3.78125 -3.9375 3.558594 -4.148438 C 3.332031 -4.363281 3.070312 -4.527344 2.769531 -4.648438 C 2.464844 -4.769531 2.140625 -4.832031 1.796875 -4.832031 L 0.53125 -4.832031 L 0.53125 0 L 1.796875 0 C 2.140625 0 2.464844 -0.0585938 2.769531 -0.175781 C 3.070312 -0.296875 3.332031 -0.46875 3.558594 -0.683594 C 3.78125 -0.894531 3.957031 -1.144531 4.085938 -1.441406 C 4.214844 -1.742188 4.285156 -2.0625 4.285156 -2.414062 Z M 3.800781 -2.414062 C 3.800781 -1.863281 3.601562 -1.398438 3.21875 -1.039062 C 2.835938 -0.675781 2.367188 -0.496094 1.8125 -0.496094 L 1.03125 -0.496094 L 1.03125 -4.335938 L 1.8125 -4.335938 C 2.367188 -4.335938 2.835938 -4.148438 3.21875 -3.792969 C 3.601562 -3.425781 3.800781 -2.964844 3.800781 -2.414062 Z M 3.800781 -2.414062 "/></g></g></g><g fill="#000000" fill-opacity="1"><g transform="translate(74.166092, 200.975565)"><g><path d="M 3.402344 0 L 3.402344 -0.460938 L 1.03125 -0.460938 L 1.03125 -2.179688 L 3.332031 -2.179688 L 3.332031 -2.652344 L 1.03125 -2.652344 L 1.03125 -4.371094 L 3.402344 -4.371094 L 3.402344 -4.832031 L 0.53125 -4.832031 L 0.53125 0 Z M 3.402344 0 "/></g></g></g><g fill="#000000" fill-opacity="1"><g transform="translate(79.64466, 200.975565)"><g/></g></g><g fill="#000000" fill-opacity="1"><g transform="translate(83.10518, 200.975565)"><g><path d="M 1.03125 -2.394531 L 1.03125 -4.355469 L 2.152344 -4.355469 C 2.445312 -4.355469 2.679688 -4.261719 2.855469 -4.085938 C 3.027344 -3.902344 3.121094 -3.671875 3.121094 -3.390625 C 3.121094 -3.097656 3.027344 -2.863281 2.84375 -2.671875 C 2.65625 -2.488281 2.429688 -2.394531 2.152344 -2.394531 Z M 3.617188 -3.375 C 3.617188 -3.800781 3.460938 -4.148438 3.160156 -4.425781 C 2.863281 -4.695312 2.507812 -4.832031 2.082031 -4.832031 L 0.53125 -4.832031 L 0.53125 0 L 1.03125 0 L 1.03125 -1.910156 L 2.082031 -1.910156 C 2.507812 -1.910156 2.871094 -2.046875 3.160156 -2.316406 C 3.460938 -2.601562 3.617188 -2.949219 3.617188 -3.375 Z M 3.617188 -3.375 "/></g></g></g><g fill="#000000" fill-opacity="1"><g transform="translate(88.406102, 200.975565)"><g><path d="M 1.867188 -2.273438 C 2.492188 -2.125 2.921875 -1.960938 3.148438 -1.777344 C 3.304688 -1.648438 3.382812 -1.484375 3.382812 -1.285156 C 3.382812 -1.085938 3.339844 -0.921875 3.253906 -0.808594 C 3.042969 -0.511719 2.65625 -0.363281 2.117188 -0.363281 C 1.363281 -0.363281 0.9375 -0.617188 0.84375 -1.128906 L 0.261719 -1.128906 C 0.433594 -0.3125 1.050781 0.09375 2.117188 0.09375 C 2.59375 0.09375 2.992188 -0.0078125 3.3125 -0.21875 C 3.695312 -0.46875 3.894531 -0.839844 3.894531 -1.320312 C 3.894531 -1.71875 3.738281 -2.023438 3.425781 -2.238281 C 3.203125 -2.394531 2.847656 -2.535156 2.359375 -2.664062 C 1.863281 -2.792969 1.542969 -2.898438 1.394531 -2.976562 C 1.066406 -3.140625 0.902344 -3.367188 0.910156 -3.667969 C 0.910156 -3.824219 0.9375 -3.957031 1.007812 -4.058594 C 1.195312 -4.335938 1.519531 -4.476562 1.988281 -4.476562 C 2.652344 -4.476562 3.027344 -4.261719 3.125 -3.851562 L 3.667969 -3.851562 C 3.488281 -4.546875 2.925781 -4.902344 1.988281 -4.902344 C 1.5625 -4.902344 1.1875 -4.789062 0.875 -4.5625 C 0.554688 -4.335938 0.390625 -4 0.390625 -3.546875 C 0.390625 -2.925781 0.886719 -2.5 1.867188 -2.273438 Z M 1.867188 -2.273438 "/></g></g></g><g fill="#000000" fill-opacity="1"><g transform="translate(94.026789, 200.975565)"><g><path d="M 1.03125 0 L 1.03125 -4.832031 L 0.53125 -4.832031 L 0.53125 0 Z M 1.03125 0 "/></g></g></g><g fill="#000000" fill-opacity="1"><g transform="translate(97.132017, 200.975565)"><g><path d="M 4.96875 -1.476562 L 4.417969 -1.476562 C 4.25 -1.164062 4.015625 -0.910156 3.714844 -0.726562 C 3.417969 -0.53125 3.082031 -0.441406 2.730469 -0.441406 C 2.195312 -0.441406 1.742188 -0.632812 1.363281 -1.03125 C 0.996094 -1.40625 0.816406 -1.867188 0.816406 -2.410156 C 0.816406 -2.949219 0.996094 -3.410156 1.363281 -3.792969 C 1.535156 -3.972656 1.742188 -4.113281 1.976562 -4.222656 C 2.203125 -4.328125 2.429688 -4.382812 2.65625 -4.382812 C 2.878906 -4.382812 3.070312 -4.355469 3.238281 -4.304688 C 3.757812 -4.148438 4.148438 -3.835938 4.414062 -3.359375 L 4.960938 -3.359375 C 4.773438 -3.816406 4.484375 -4.183594 4.078125 -4.46875 C 3.667969 -4.753906 3.21875 -4.894531 2.730469 -4.894531 C 2.054688 -4.894531 1.484375 -4.648438 1.015625 -4.15625 C 0.796875 -3.929688 0.625 -3.660156 0.503906 -3.359375 C 0.375 -3.0625 0.320312 -2.742188 0.320312 -2.410156 C 0.320312 -1.726562 0.546875 -1.152344 1.015625 -0.667969 C 1.484375 -0.171875 2.054688 0.0703125 2.730469 0.0703125 C 3.21875 0.0703125 3.667969 -0.0703125 4.085938 -0.355469 C 4.492188 -0.640625 4.78125 -1.007812 4.96875 -1.476562 Z M 4.96875 -1.476562 "/></g></g></g><g fill="#000000" fill-opacity="1"><g transform="translate(103.854106, 200.975565)"><g><path d="M 4.789062 -2.429688 C 4.789062 -1.875 4.589844 -1.40625 4.207031 -1.023438 C 3.816406 -0.632812 3.347656 -0.441406 2.800781 -0.441406 C 2.253906 -0.441406 1.785156 -0.632812 1.398438 -1.023438 C 1.007812 -1.40625 0.816406 -1.875 0.816406 -2.429688 C 0.816406 -2.96875 1.007812 -3.4375 1.398438 -3.828125 C 1.785156 -4.214844 2.253906 -4.414062 2.800781 -4.414062 C 3.347656 -4.414062 3.816406 -4.214844 4.207031 -3.828125 C 4.589844 -3.4375 4.789062 -2.96875 4.789062 -2.429688 Z M 5.285156 -2.429688 C 5.285156 -2.769531 5.214844 -3.089844 5.085938 -3.398438 C 4.960938 -3.695312 4.78125 -3.957031 4.554688 -4.183594 C 4.328125 -4.40625 4.066406 -4.582031 3.765625 -4.710938 C 3.460938 -4.839844 3.140625 -4.910156 2.800781 -4.910156 C 2.457031 -4.910156 2.132812 -4.839844 1.832031 -4.710938 C 1.535156 -4.582031 1.273438 -4.40625 1.042969 -4.183594 C 0.816406 -3.957031 0.640625 -3.695312 0.511719 -3.398438 C 0.382812 -3.089844 0.320312 -2.769531 0.320312 -2.429688 C 0.320312 -2.089844 0.382812 -1.761719 0.511719 -1.464844 C 0.640625 -1.160156 0.816406 -0.894531 1.042969 -0.667969 C 1.273438 -0.441406 1.535156 -0.261719 1.832031 -0.136719 C 2.132812 -0.0078125 2.457031 0.0585938 2.800781 0.0585938 C 3.140625 0.0585938 3.460938 -0.0078125 3.765625 -0.136719 C 4.066406 -0.261719 4.328125 -0.441406 4.554688 -0.667969 C 4.78125 -0.894531 4.960938 -1.160156 5.085938 -1.464844 C 5.214844 -1.761719 5.285156 -2.089844 5.285156 -2.429688 Z M 5.285156 -2.429688 "/></g></g></g><g fill="#000000" fill-opacity="1"><g transform="translate(111.002541, 200.975565)"><g><path d="M 1.03125 -0.496094 L 1.03125 -4.832031 L 0.53125 -4.832031 L 0.53125 0 L 2.757812 0 L 2.757812 -0.496094 Z M 1.03125 -0.496094 "/></g></g></g><g fill="#000000" fill-opacity="1"><g transform="translate(115.443669, 200.975565)"><g><path d="M 4.789062 -2.429688 C 4.789062 -1.875 4.589844 -1.40625 4.207031 -1.023438 C 3.816406 -0.632812 3.347656 -0.441406 2.800781 -0.441406 C 2.253906 -0.441406 1.785156 -0.632812 1.398438 -1.023438 C 1.007812 -1.40625 0.816406 -1.875 0.816406 -2.429688 C 0.816406 -2.96875 1.007812 -3.4375 1.398438 -3.828125 C 1.785156 -4.214844 2.253906 -4.414062 2.800781 -4.414062 C 3.347656 -4.414062 3.816406 -4.214844 4.207031 -3.828125 C 4.589844 -3.4375 4.789062 -2.96875 4.789062 -2.429688 Z M 5.285156 -2.429688 C 5.285156 -2.769531 5.214844 -3.089844 5.085938 -3.398438 C 4.960938 -3.695312 4.78125 -3.957031 4.554688 -4.183594 C 4.328125 -4.40625 4.066406 -4.582031 3.765625 -4.710938 C 3.460938 -4.839844 3.140625 -4.910156 2.800781 -4.910156 C 2.457031 -4.910156 2.132812 -4.839844 1.832031 -4.710938 C 1.535156 -4.582031 1.273438 -4.40625 1.042969 -4.183594 C 0.816406 -3.957031 0.640625 -3.695312 0.511719 -3.398438 C 0.382812 -3.089844 0.320312 -2.769531 0.320312 -2.429688 C 0.320312 -2.089844 0.382812 -1.761719 0.511719 -1.464844 C 0.640625 -1.160156 0.816406 -0.894531 1.042969 -0.667969 C 1.273438 -0.441406 1.535156 -0.261719 1.832031 -0.136719 C 2.132812 -0.0078125 2.457031 0.0585938 2.800781 0.0585938 C 3.140625 0.0585938 3.460938 -0.0078125 3.765625 -0.136719 C 4.066406 -0.261719 4.328125 -0.441406 4.554688 -0.667969 C 4.78125 -0.894531 4.960938 -1.160156 5.085938 -1.464844 C 5.214844 -1.761719 5.285156 -2.089844 5.285156 -2.429688 Z M 5.285156 -2.429688 "/></g></g></g><g fill="#000000" fill-opacity="1"><g transform="translate(122.592104, 200.975565)"><g><path d="M 5.300781 -2.257812 L 2.785156 -2.257812 L 2.785156 -1.828125 L 4.746094 -1.828125 C 4.597656 -1.40625 4.347656 -1.066406 3.992188 -0.816406 C 3.636719 -0.5625 3.238281 -0.441406 2.808594 -0.441406 C 2.253906 -0.441406 1.785156 -0.632812 1.394531 -1.023438 C 1.007812 -1.414062 0.816406 -1.890625 0.816406 -2.4375 C 0.816406 -2.984375 1.007812 -3.453125 1.398438 -3.84375 C 1.785156 -4.226562 2.253906 -4.425781 2.808594 -4.425781 C 3.21875 -4.425781 3.59375 -4.304688 3.929688 -4.070312 C 4.269531 -3.835938 4.511719 -3.53125 4.667969 -3.140625 L 5.195312 -3.140625 C 5.03125 -3.671875 4.726562 -4.101562 4.285156 -4.425781 C 3.84375 -4.753906 3.332031 -4.925781 2.757812 -4.925781 C 2.445312 -4.925781 2.140625 -4.851562 1.839844 -4.726562 C 1.535156 -4.597656 1.273438 -4.417969 1.042969 -4.191406 C 0.816406 -3.964844 0.640625 -3.703125 0.511719 -3.402344 C 0.382812 -3.097656 0.320312 -2.769531 0.320312 -2.429688 C 0.320312 -2.089844 0.382812 -1.761719 0.511719 -1.464844 C 0.640625 -1.160156 0.816406 -0.894531 1.042969 -0.667969 C 1.273438 -0.441406 1.535156 -0.261719 1.839844 -0.136719 C 2.140625 -0.0078125 2.464844 0.0585938 2.808594 0.0585938 C 3.390625 0.0585938 3.914062 -0.128906 4.382812 -0.503906 C 4.851562 -0.886719 5.144531 -1.371094 5.25 -1.960938 Z M 5.300781 -2.257812 "/></g></g></g><g fill="#000000" fill-opacity="1"><g transform="translate(129.754752, 200.975565)"><g><path d="M 1.03125 0 L 1.03125 -4.832031 L 0.53125 -4.832031 L 0.53125 0 Z M 1.03125 0 "/></g></g></g><g fill="#000000" fill-opacity="1"><g transform="translate(132.85998, 200.975565)"><g><path d="M 1.316406 -1.777344 L 2.195312 -4 L 3.070312 -1.777344 Z M 4.3125 0 L 2.195312 -5.164062 L 0.0703125 0 L 0.609375 0 L 1.128906 -1.316406 L 3.253906 -1.316406 L 3.773438 0 Z M 4.3125 0 "/></g></g></g><g fill="#000000" fill-opacity="1"><g transform="translate(138.786218, 200.975565)"><g/></g></g><g fill="#000000" fill-opacity="1"><g transform="translate(142.246738, 200.975565)"><g><path d="M 1.03125 0 L 1.03125 -4.832031 L 0.53125 -4.832031 L 0.53125 0 Z M 1.03125 0 "/></g></g></g><g fill="#000000" fill-opacity="1"><g transform="translate(145.351967, 200.975565)"><g><path d="M 1.03125 -3.558594 L 3.746094 0.296875 L 3.746094 -4.832031 L 3.246094 -4.832031 L 3.246094 -1.277344 L 0.53125 -5.136719 L 0.53125 0 L 1.03125 0 Z M 1.03125 -3.558594 "/></g></g></g><g fill="#000000" fill-opacity="1"><g transform="translate(151.171614, 200.975565)"><g><path d="M 3.402344 -4.371094 L 3.402344 -4.832031 L 0.53125 -4.832031 L 0.53125 0 L 1.03125 0 L 1.03125 -2.179688 L 3.332031 -2.179688 L 3.332031 -2.652344 L 1.03125 -2.652344 L 1.03125 -4.371094 Z M 3.402344 -4.371094 "/></g></g></g><g fill="#000000" fill-opacity="1"><g transform="translate(156.259363, 200.975565)"><g><path d="M 1.316406 -1.777344 L 2.195312 -4 L 3.070312 -1.777344 Z M 4.3125 0 L 2.195312 -5.164062 L 0.0703125 0 L 0.609375 0 L 1.128906 -1.316406 L 3.253906 -1.316406 L 3.773438 0 Z M 4.3125 0 "/></g></g></g><g fill="#000000" fill-opacity="1"><g transform="translate(162.185601, 200.975565)"><g><path d="M 1.03125 -3.558594 L 3.746094 0.296875 L 3.746094 -4.832031 L 3.246094 -4.832031 L 3.246094 -1.277344 L 0.53125 -5.136719 L 0.53125 0 L 1.03125 0 Z M 1.03125 -3.558594 "/></g></g></g><g fill="#000000" fill-opacity="1"><g transform="translate(168.005247, 200.975565)"><g><path d="M 0.140625 -4.382812 L 1.316406 -4.382812 L 1.316406 -0.015625 L 1.8125 -0.015625 L 1.8125 -4.382812 L 2.984375 -4.382812 L 2.984375 -4.847656 L 0.140625 -4.847656 Z M 0.140625 -4.382812 "/></g></g></g><g fill="#000000" fill-opacity="1"><g transform="translate(172.673761, 200.975565)"><g><path d="M 4.789062 -2.429688 C 4.789062 -1.875 4.589844 -1.40625 4.207031 -1.023438 C 3.816406 -0.632812 3.347656 -0.441406 2.800781 -0.441406 C 2.253906 -0.441406 1.785156 -0.632812 1.398438 -1.023438 C 1.007812 -1.40625 0.816406 -1.875 0.816406 -2.429688 C 0.816406 -2.96875 1.007812 -3.4375 1.398438 -3.828125 C 1.785156 -4.214844 2.253906 -4.414062 2.800781 -4.414062 C 3.347656 -4.414062 3.816406 -4.214844 4.207031 -3.828125 C 4.589844 -3.4375 4.789062 -2.96875 4.789062 -2.429688 Z M 5.285156 -2.429688 C 5.285156 -2.769531 5.214844 -3.089844 5.085938 -3.398438 C 4.960938 -3.695312 4.78125 -3.957031 4.554688 -4.183594 C 4.328125 -4.40625 4.066406 -4.582031 3.765625 -4.710938 C 3.460938 -4.839844 3.140625 -4.910156 2.800781 -4.910156 C 2.457031 -4.910156 2.132812 -4.839844 1.832031 -4.710938 C 1.535156 -4.582031 1.273438 -4.40625 1.042969 -4.183594 C 0.816406 -3.957031 0.640625 -3.695312 0.511719 -3.398438 C 0.382812 -3.089844 0.320312 -2.769531 0.320312 -2.429688 C 0.320312 -2.089844 0.382812 -1.761719 0.511719 -1.464844 C 0.640625 -1.160156 0.816406 -0.894531 1.042969 -0.667969 C 1.273438 -0.441406 1.535156 -0.261719 1.832031 -0.136719 C 2.132812 -0.0078125 2.457031 0.0585938 2.800781 0.0585938 C 3.140625 0.0585938 3.460938 -0.0078125 3.765625 -0.136719 C 4.066406 -0.261719 4.328125 -0.441406 4.554688 -0.667969 C 4.78125 -0.894531 4.960938 -1.160156 5.085938 -1.464844 C 5.214844 -1.761719 5.285156 -2.089844 5.285156 -2.429688 Z M 5.285156 -2.429688 "/></g></g></g><g fill="#000000" fill-opacity="1"><g transform="translate(179.822196, 200.975565)"><g><path d="M 2.167969 -1.195312 L 2.167969 -4.832031 L 1.667969 -4.832031 L 1.667969 -1.195312 C 1.667969 -0.886719 1.550781 -0.675781 1.320312 -0.546875 C 1.128906 -0.433594 0.894531 -0.398438 0.617188 -0.433594 C 0.363281 -0.460938 0.164062 -0.53125 0.0351562 -0.648438 L 0.0351562 -0.0976562 C 0.078125 -0.0585938 0.164062 -0.0195312 0.292969 0.015625 C 0.417969 0.0507812 0.5625 0.0703125 0.71875 0.0703125 C 1.101562 0.0859375 1.421875 0.0078125 1.675781 -0.171875 C 2.003906 -0.382812 2.167969 -0.726562 2.167969 -1.195312 Z M 2.167969 -1.195312 "/></g></g></g><g fill="#000000" fill-opacity="1"><g transform="translate(183.957772, 200.975565)"><g><path d="M 4.027344 -1.597656 L 4.027344 -4.832031 L 3.53125 -4.832031 L 3.53125 -1.527344 C 3.53125 -1.328125 3.496094 -1.164062 3.425781 -1.03125 C 3.21875 -0.632812 2.820312 -0.433594 2.230469 -0.433594 C 1.847656 -0.433594 1.542969 -0.519531 1.316406 -0.6875 C 1.050781 -0.882812 0.921875 -1.160156 0.921875 -1.527344 L 0.921875 -4.832031 L 0.425781 -4.832031 L 0.425781 -1.597656 C 0.425781 -1.074219 0.597656 -0.660156 0.9375 -0.363281 C 1.257812 -0.078125 1.691406 0.0625 2.230469 0.0625 C 2.765625 0.0625 3.191406 -0.078125 3.515625 -0.363281 C 3.859375 -0.660156 4.027344 -1.074219 4.027344 -1.597656 Z M 4.027344 -1.597656 "/></g></g></g><g fill="#000000" fill-opacity="1"><g transform="translate(189.955065, 200.975565)"><g><path d="M 2.265625 0.292969 L 4.457031 -4.832031 L 3.914062 -4.832031 L 2.265625 -0.9375 L 0.609375 -4.832031 L 0.0703125 -4.832031 Z M 2.265625 0.292969 "/></g></g></g><g fill="#000000" fill-opacity="1"><g transform="translate(196.023412, 200.975565)"><g><path d="M 3.402344 0 L 3.402344 -0.460938 L 1.03125 -0.460938 L 1.03125 -2.179688 L 3.332031 -2.179688 L 3.332031 -2.652344 L 1.03125 -2.652344 L 1.03125 -4.371094 L 3.402344 -4.371094 L 3.402344 -4.832031 L 0.53125 -4.832031 L 0.53125 0 Z M 3.402344 0 "/></g></g></g><g fill="#000000" fill-opacity="1"><g transform="translate(201.50198, 200.975565)"><g><path d="M 1.03125 -3.558594 L 3.746094 0.296875 L 3.746094 -4.832031 L 3.246094 -4.832031 L 3.246094 -1.277344 L 0.53125 -5.136719 L 0.53125 0 L 1.03125 0 Z M 1.03125 -3.558594 "/></g></g></g><g fill="#000000" fill-opacity="1"><g transform="translate(207.321618, 200.975565)"><g><path d="M 1.03125 0 L 1.03125 -4.832031 L 0.53125 -4.832031 L 0.53125 0 Z M 1.03125 0 "/></g></g></g><g fill="#000000" fill-opacity="1"><g transform="translate(210.426847, 200.975565)"><g><path d="M 1.03125 -0.496094 L 1.03125 -4.832031 L 0.53125 -4.832031 L 0.53125 0 L 2.757812 0 L 2.757812 -0.496094 Z M 1.03125 -0.496094 "/></g></g></g><g fill="#000000" fill-opacity="1"><g transform="translate(214.867965, 200.975565)"><g/></g></g><g fill="#000000" fill-opacity="1"><g transform="translate(218.328485, 200.975565)"><g><path d="M 3.402344 0 L 3.402344 -0.460938 L 1.03125 -0.460938 L 1.03125 -2.179688 L 3.332031 -2.179688 L 3.332031 -2.652344 L 1.03125 -2.652344 L 1.03125 -4.371094 L 3.402344 -4.371094 L 3.402344 -4.832031 L 0.53125 -4.832031 L 0.53125 0 Z M 3.402344 0 "/></g></g></g><g fill="#000000" fill-opacity="1"><g transform="translate(223.807053, 200.975565)"><g/></g></g><g fill="#000000" fill-opacity="1"><g transform="translate(227.267573, 200.975565)"><g><path d="M 1.316406 -1.777344 L 2.195312 -4 L 3.070312 -1.777344 Z M 4.3125 0 L 2.195312 -5.164062 L 0.0703125 0 L 0.609375 0 L 1.128906 -1.316406 L 3.253906 -1.316406 L 3.773438 0 Z M 4.3125 0 "/></g></g></g><g fill="#000000" fill-opacity="1"><g transform="translate(233.193811, 200.975565)"><g><path d="M 1.03125 -2.394531 L 1.03125 -4.355469 L 2.152344 -4.355469 C 2.445312 -4.355469 2.679688 -4.261719 2.855469 -4.085938 C 3.027344 -3.902344 3.121094 -3.671875 3.121094 -3.390625 C 3.121094 -3.097656 3.027344 -2.863281 2.84375 -2.671875 C 2.65625 -2.488281 2.429688 -2.394531 2.152344 -2.394531 Z M 3.617188 -3.375 C 3.617188 -3.800781 3.460938 -4.148438 3.160156 -4.425781 C 2.863281 -4.695312 2.507812 -4.832031 2.082031 -4.832031 L 0.53125 -4.832031 L 0.53125 0 L 1.03125 0 L 1.03125 -1.910156 L 2.082031 -1.910156 C 2.507812 -1.910156 2.871094 -2.046875 3.160156 -2.316406 C 3.460938 -2.601562 3.617188 -2.949219 3.617188 -3.375 Z M 3.617188 -3.375 "/></g></g></g><g fill="#000000" fill-opacity="1"><g transform="translate(238.494725, 200.975565)"><g><path d="M 4.789062 -2.429688 C 4.789062 -1.875 4.589844 -1.40625 4.207031 -1.023438 C 3.816406 -0.632812 3.347656 -0.441406 2.800781 -0.441406 C 2.253906 -0.441406 1.785156 -0.632812 1.398438 -1.023438 C 1.007812 -1.40625 0.816406 -1.875 0.816406 -2.429688 C 0.816406 -2.96875 1.007812 -3.4375 1.398438 -3.828125 C 1.785156 -4.214844 2.253906 -4.414062 2.800781 -4.414062 C 3.347656 -4.414062 3.816406 -4.214844 4.207031 -3.828125 C 4.589844 -3.4375 4.789062 -2.96875 4.789062 -2.429688 Z M 5.285156 -2.429688 C 5.285156 -2.769531 5.214844 -3.089844 5.085938 -3.398438 C 4.960938 -3.695312 4.78125 -3.957031 4.554688 -4.183594 C 4.328125 -4.40625 4.066406 -4.582031 3.765625 -4.710938 C 3.460938 -4.839844 3.140625 -4.910156 2.800781 -4.910156 C 2.457031 -4.910156 2.132812 -4.839844 1.832031 -4.710938 C 1.535156 -4.582031 1.273438 -4.40625 1.042969 -4.183594 C 0.816406 -3.957031 0.640625 -3.695312 0.511719 -3.398438 C 0.382812 -3.089844 0.320312 -2.769531 0.320312 -2.429688 C 0.320312 -2.089844 0.382812 -1.761719 0.511719 -1.464844 C 0.640625 -1.160156 0.816406 -0.894531 1.042969 -0.667969 C 1.273438 -0.441406 1.535156 -0.261719 1.832031 -0.136719 C 2.132812 -0.0078125 2.457031 0.0585938 2.800781 0.0585938 C 3.140625 0.0585938 3.460938 -0.0078125 3.765625 -0.136719 C 4.066406 -0.261719 4.328125 -0.441406 4.554688 -0.667969 C 4.78125 -0.894531 4.960938 -1.160156 5.085938 -1.464844 C 5.214844 -1.761719 5.285156 -2.089844 5.285156 -2.429688 Z M 5.285156 -2.429688 "/></g></g></g><g fill="#000000" fill-opacity="1"><g transform="translate(245.643151, 200.975565)"><g><path d="M 1.03125 0 L 1.03125 -4.832031 L 0.53125 -4.832031 L 0.53125 0 Z M 1.03125 0 "/></g></g></g><g fill="#000000" fill-opacity="1"><g transform="translate(248.748379, 200.975565)"><g><path d="M 4.789062 -2.429688 C 4.789062 -1.875 4.589844 -1.40625 4.207031 -1.023438 C 3.816406 -0.632812 3.347656 -0.441406 2.800781 -0.441406 C 2.253906 -0.441406 1.785156 -0.632812 1.398438 -1.023438 C 1.007812 -1.40625 0.816406 -1.875 0.816406 -2.429688 C 0.816406 -2.96875 1.007812 -3.4375 1.398438 -3.828125 C 1.785156 -4.214844 2.253906 -4.414062 2.800781 -4.414062 C 3.347656 -4.414062 3.816406 -4.214844 4.207031 -3.828125 C 4.589844 -3.4375 4.789062 -2.96875 4.789062 -2.429688 Z M 5.285156 -2.429688 C 5.285156 -2.769531 5.214844 -3.089844 5.085938 -3.398438 C 4.960938 -3.695312 4.78125 -3.957031 4.554688 -4.183594 C 4.328125 -4.40625 4.066406 -4.582031 3.765625 -4.710938 C 3.460938 -4.839844 3.140625 -4.910156 2.800781 -4.910156 C 2.457031 -4.910156 2.132812 -4.839844 1.832031 -4.710938 C 1.535156 -4.582031 1.273438 -4.40625 1.042969 -4.183594 C 0.816406 -3.957031 0.640625 -3.695312 0.511719 -3.398438 C 0.382812 -3.089844 0.320312 -2.769531 0.320312 -2.429688 C 0.320312 -2.089844 0.382812 -1.761719 0.511719 -1.464844 C 0.640625 -1.160156 0.816406 -0.894531 1.042969 -0.667969 C 1.273438 -0.441406 1.535156 -0.261719 1.832031 -0.136719 C 2.132812 -0.0078125 2.457031 0.0585938 2.800781 0.0585938 C 3.140625 0.0585938 3.460938 -0.0078125 3.765625 -0.136719 C 4.066406 -0.261719 4.328125 -0.441406 4.554688 -0.667969 C 4.78125 -0.894531 4.960938 -1.160156 5.085938 -1.464844 C 5.214844 -1.761719 5.285156 -2.089844 5.285156 -2.429688 Z M 5.285156 -2.429688 "/></g></g></g><g fill="#000000" fill-opacity="1"><g transform="translate(255.896805, 200.975565)"><g/></g></g><g fill="#000000" fill-opacity="1"><g transform="translate(259.357325, 200.975565)"><g><path d="M 1.316406 -1.777344 L 2.195312 -4 L 3.070312 -1.777344 Z M 4.3125 0 L 2.195312 -5.164062 L 0.0703125 0 L 0.609375 0 L 1.128906 -1.316406 L 3.253906 -1.316406 L 3.773438 0 Z M 2.457031 -5.328125 L 1.820312 -6.34375 L 1.277344 -6.34375 L 2.0625 -5.328125 Z M 2.457031 -5.328125 "/></g></g></g><g fill="#000000" fill-opacity="1"><g transform="translate(265.283563, 200.975565)"><g><path d="M 1.867188 -2.273438 C 2.492188 -2.125 2.921875 -1.960938 3.148438 -1.777344 C 3.304688 -1.648438 3.382812 -1.484375 3.382812 -1.285156 C 3.382812 -1.085938 3.339844 -0.921875 3.253906 -0.808594 C 3.042969 -0.511719 2.65625 -0.363281 2.117188 -0.363281 C 1.363281 -0.363281 0.9375 -0.617188 0.84375 -1.128906 L 0.261719 -1.128906 C 0.433594 -0.3125 1.050781 0.09375 2.117188 0.09375 C 2.59375 0.09375 2.992188 -0.0078125 3.3125 -0.21875 C 3.695312 -0.46875 3.894531 -0.839844 3.894531 -1.320312 C 3.894531 -1.71875 3.738281 -2.023438 3.425781 -2.238281 C 3.203125 -2.394531 2.847656 -2.535156 2.359375 -2.664062 C 1.863281 -2.792969 1.542969 -2.898438 1.394531 -2.976562 C 1.066406 -3.140625 0.902344 -3.367188 0.910156 -3.667969 C 0.910156 -3.824219 0.9375 -3.957031 1.007812 -4.058594 C 1.195312 -4.335938 1.519531 -4.476562 1.988281 -4.476562 C 2.652344 -4.476562 3.027344 -4.261719 3.125 -3.851562 L 3.667969 -3.851562 C 3.488281 -4.546875 2.925781 -4.902344 1.988281 -4.902344 C 1.5625 -4.902344 1.1875 -4.789062 0.875 -4.5625 C 0.554688 -4.335938 0.390625 -4 0.390625 -3.546875 C 0.390625 -2.925781 0.886719 -2.5 1.867188 -2.273438 Z M 1.867188 -2.273438 "/></g></g></g><g fill="#000000" fill-opacity="1"><g transform="translate(270.904241, 200.975565)"><g/></g></g><g fill="#000000" fill-opacity="1"><g transform="translate(274.364761, 200.975565)"><g><path d="M 1.316406 -1.777344 L 2.195312 -4 L 3.070312 -1.777344 Z M 4.3125 0 L 2.195312 -5.164062 L 0.0703125 0 L 0.609375 0 L 1.128906 -1.316406 L 3.253906 -1.316406 L 3.773438 0 Z M 4.3125 0 "/></g></g></g><g fill="#000000" fill-opacity="1"><g transform="translate(280.290999, 200.975565)"><g><path d="M 1.03125 -2.394531 L 1.03125 -4.355469 L 2.152344 -4.355469 C 2.445312 -4.355469 2.679688 -4.261719 2.855469 -4.085938 C 3.027344 -3.902344 3.121094 -3.671875 3.121094 -3.390625 C 3.121094 -3.097656 3.027344 -2.863281 2.84375 -2.671875 C 2.65625 -2.488281 2.429688 -2.394531 2.152344 -2.394531 Z M 3.617188 -3.375 C 3.617188 -3.800781 3.460938 -4.148438 3.160156 -4.425781 C 2.863281 -4.695312 2.507812 -4.832031 2.082031 -4.832031 L 0.53125 -4.832031 L 0.53125 0 L 1.03125 0 L 1.03125 -1.910156 L 2.082031 -1.910156 C 2.507812 -1.910156 2.871094 -2.046875 3.160156 -2.316406 C 3.460938 -2.601562 3.617188 -2.949219 3.617188 -3.375 Z M 3.617188 -3.375 "/></g></g></g><g fill="#000000" fill-opacity="1"><g transform="translate(285.591912, 200.975565)"><g><path d="M 1.03125 -2.386719 L 1.03125 -4.355469 L 2.152344 -4.355469 C 2.445312 -4.355469 2.679688 -4.261719 2.855469 -4.078125 C 3.027344 -3.894531 3.121094 -3.667969 3.121094 -3.382812 C 3.121094 -3.097656 3.027344 -2.863281 2.84375 -2.671875 C 2.65625 -2.480469 2.429688 -2.386719 2.152344 -2.386719 Z M 3.617188 -3.375 C 3.617188 -3.789062 3.460938 -4.144531 3.160156 -4.417969 C 2.871094 -4.691406 2.507812 -4.832031 2.082031 -4.832031 L 0.53125 -4.832031 L 0.53125 0 L 1.03125 0 L 1.03125 -1.910156 L 1.605469 -1.910156 L 3.027344 0 L 3.695312 0 L 2.203125 -1.910156 C 2.578125 -1.933594 2.898438 -2.066406 3.160156 -2.316406 C 3.460938 -2.59375 3.617188 -2.949219 3.617188 -3.375 Z M 3.617188 -3.375 "/></g></g></g><g fill="#000000" fill-opacity="1"><g transform="translate(290.999425, 200.975565)"><g><path d="M 3.402344 0 L 3.402344 -0.460938 L 1.03125 -0.460938 L 1.03125 -2.179688 L 3.332031 -2.179688 L 3.332031 -2.652344 L 1.03125 -2.652344 L 1.03125 -4.371094 L 3.402344 -4.371094 L 3.402344 -4.832031 L 0.53125 -4.832031 L 0.53125 0 Z M 3.402344 0 "/></g></g></g><g fill="#000000" fill-opacity="1"><g transform="translate(296.477993, 200.975565)"><g><path d="M 1.03125 -3.558594 L 3.746094 0.296875 L 3.746094 -4.832031 L 3.246094 -4.832031 L 3.246094 -1.277344 L 0.53125 -5.136719 L 0.53125 0 L 1.03125 0 Z M 1.03125 -3.558594 "/></g></g></g><g fill="#000000" fill-opacity="1"><g transform="translate(302.297631, 200.975565)"><g><path d="M 4.285156 -2.414062 C 4.285156 -2.765625 4.214844 -3.082031 4.085938 -3.382812 C 3.957031 -3.679688 3.78125 -3.9375 3.558594 -4.148438 C 3.332031 -4.363281 3.070312 -4.527344 2.769531 -4.648438 C 2.464844 -4.769531 2.140625 -4.832031 1.796875 -4.832031 L 0.53125 -4.832031 L 0.53125 0 L 1.796875 0 C 2.140625 0 2.464844 -0.0585938 2.769531 -0.175781 C 3.070312 -0.296875 3.332031 -0.46875 3.558594 -0.683594 C 3.78125 -0.894531 3.957031 -1.144531 4.085938 -1.441406 C 4.214844 -1.742188 4.285156 -2.0625 4.285156 -2.414062 Z M 3.800781 -2.414062 C 3.800781 -1.863281 3.601562 -1.398438 3.21875 -1.039062 C 2.835938 -0.675781 2.367188 -0.496094 1.8125 -0.496094 L 1.03125 -0.496094 L 1.03125 -4.335938 L 1.8125 -4.335938 C 2.367188 -4.335938 2.835938 -4.148438 3.21875 -3.792969 C 3.601562 -3.425781 3.800781 -2.964844 3.800781 -2.414062 Z M 3.800781 -2.414062 "/></g></g></g><g fill="#000000" fill-opacity="1"><g transform="translate(308.444153, 200.975565)"><g><path d="M 1.03125 0 L 1.03125 -4.832031 L 0.53125 -4.832031 L 0.53125 0 Z M 1.03125 0 "/></g></g></g><g fill="#000000" fill-opacity="1"><g transform="translate(311.549382, 200.975565)"><g><path d="M 1.078125 -0.460938 L 3.945312 -4.832031 L 0.328125 -4.832031 L 0.328125 -4.371094 L 3.042969 -4.371094 L 0.175781 0 L 3.824219 0 L 3.824219 -0.460938 Z M 1.078125 -0.460938 "/></g></g></g><g fill="#000000" fill-opacity="1"><g transform="translate(317.212706, 200.975565)"><g><path d="M 1.316406 -1.777344 L 2.195312 -4 L 3.070312 -1.777344 Z M 4.3125 0 L 2.195312 -5.164062 L 0.0703125 0 L 0.609375 0 L 1.128906 -1.316406 L 3.253906 -1.316406 L 3.773438 0 Z M 4.3125 0 "/></g></g></g><g fill="#000000" fill-opacity="1"><g transform="translate(323.138944, 200.975565)"><g><path d="M 5.300781 -2.257812 L 2.785156 -2.257812 L 2.785156 -1.828125 L 4.746094 -1.828125 C 4.597656 -1.40625 4.347656 -1.066406 3.992188 -0.816406 C 3.636719 -0.5625 3.238281 -0.441406 2.808594 -0.441406 C 2.253906 -0.441406 1.785156 -0.632812 1.394531 -1.023438 C 1.007812 -1.414062 0.816406 -1.890625 0.816406 -2.4375 C 0.816406 -2.984375 1.007812 -3.453125 1.398438 -3.84375 C 1.785156 -4.226562 2.253906 -4.425781 2.808594 -4.425781 C 3.21875 -4.425781 3.59375 -4.304688 3.929688 -4.070312 C 4.269531 -3.835938 4.511719 -3.53125 4.667969 -3.140625 L 5.195312 -3.140625 C 5.03125 -3.671875 4.726562 -4.101562 4.285156 -4.425781 C 3.84375 -4.753906 3.332031 -4.925781 2.757812 -4.925781 C 2.445312 -4.925781 2.140625 -4.851562 1.839844 -4.726562 C 1.535156 -4.597656 1.273438 -4.417969 1.042969 -4.191406 C 0.816406 -3.964844 0.640625 -3.703125 0.511719 -3.402344 C 0.382812 -3.097656 0.320312 -2.769531 0.320312 -2.429688 C 0.320312 -2.089844 0.382812 -1.761719 0.511719 -1.464844 C 0.640625 -1.160156 0.816406 -0.894531 1.042969 -0.667969 C 1.273438 -0.441406 1.535156 -0.261719 1.839844 -0.136719 C 2.140625 -0.0078125 2.464844 0.0585938 2.808594 0.0585938 C 3.390625 0.0585938 3.914062 -0.128906 4.382812 -0.503906 C 4.851562 -0.886719 5.144531 -1.371094 5.25 -1.960938 Z M 5.300781 -2.257812 "/></g></g></g><g fill="#000000" fill-opacity="1"><g transform="translate(330.301592, 200.975565)"><g><path d="M 3.402344 0 L 3.402344 -0.460938 L 1.03125 -0.460938 L 1.03125 -2.179688 L 3.332031 -2.179688 L 3.332031 -2.652344 L 1.03125 -2.652344 L 1.03125 -4.371094 L 3.402344 -4.371094 L 3.402344 -4.832031 L 0.53125 -4.832031 L 0.53125 0 Z M 3.402344 0 "/></g></g></g><g fill="#000000" fill-opacity="1"><g transform="translate(335.78016, 200.975565)"><g><path d="M 1.03125 -3.558594 L 3.746094 0.296875 L 3.746094 -4.832031 L 3.246094 -4.832031 L 3.246094 -1.277344 L 0.53125 -5.136719 L 0.53125 0 L 1.03125 0 Z M 1.03125 -3.558594 "/></g></g></g><g fill="#000000" fill-opacity="1"><g transform="translate(341.599816, 200.975565)"><g><path d="M 1.867188 -2.273438 C 2.492188 -2.125 2.921875 -1.960938 3.148438 -1.777344 C 3.304688 -1.648438 3.382812 -1.484375 3.382812 -1.285156 C 3.382812 -1.085938 3.339844 -0.921875 3.253906 -0.808594 C 3.042969 -0.511719 2.65625 -0.363281 2.117188 -0.363281 C 1.363281 -0.363281 0.9375 -0.617188 0.84375 -1.128906 L 0.261719 -1.128906 C 0.433594 -0.3125 1.050781 0.09375 2.117188 0.09375 C 2.59375 0.09375 2.992188 -0.0078125 3.3125 -0.21875 C 3.695312 -0.46875 3.894531 -0.839844 3.894531 -1.320312 C 3.894531 -1.71875 3.738281 -2.023438 3.425781 -2.238281 C 3.203125 -2.394531 2.847656 -2.535156 2.359375 -2.664062 C 1.863281 -2.792969 1.542969 -2.898438 1.394531 -2.976562 C 1.066406 -3.140625 0.902344 -3.367188 0.910156 -3.667969 C 0.910156 -3.824219 0.9375 -3.957031 1.007812 -4.058594 C 1.195312 -4.335938 1.519531 -4.476562 1.988281 -4.476562 C 2.652344 -4.476562 3.027344 -4.261719 3.125 -3.851562 L 3.667969 -3.851562 C 3.488281 -4.546875 2.925781 -4.902344 1.988281 -4.902344 C 1.5625 -4.902344 1.1875 -4.789062 0.875 -4.5625 C 0.554688 -4.335938 0.390625 -4 0.390625 -3.546875 C 0.390625 -2.925781 0.886719 -2.5 1.867188 -2.273438 Z M 1.867188 -2.273438 "/></g></g></g></svg>